<?xml version="1.0" encoding="utf-8"?>
<!-- Generator: Adobe Illustrator 27.0.0, SVG Export Plug-In . SVG Version: 6.00 Build 0)  -->
<svg version="1.1" id="圖層_1" xmlns="http://www.w3.org/2000/svg" xmlns:xlink="http://www.w3.org/1999/xlink" x="0px" y="0px"
	 viewBox="0 0 142.1 107.7" style="enable-background:new 0 0 142.1 107.7;" xml:space="preserve">
<style type="text/css">
	.st0{fill:#FFFFFF;}
	.st1{fill:#C4965B;stroke:#663A17;stroke-width:4.9999;stroke-miterlimit:9.9998;}
	.st2{fill:none;stroke:#663A17;stroke-width:5;stroke-miterlimit:10;}
	.st3{fill:#C4965B;stroke:#663A17;stroke-width:5;stroke-miterlimit:10;}
	.st4{fill:none;stroke:#663A17;stroke-width:5;stroke-linecap:round;stroke-linejoin:round;stroke-miterlimit:10;}
	.st5{fill:#8B5235;stroke:#541B07;stroke-width:5;stroke-miterlimit:10;}
	
		.st6{clip-path:url(#SVGID_00000034805289574364791870000012545324383382776209_);fill:none;stroke:#793E20;stroke-width:5;stroke-miterlimit:10;}
	
		.st7{clip-path:url(#SVGID_00000059278438972924932640000009863246345869313190_);fill:none;stroke:#793E20;stroke-width:5;stroke-miterlimit:10;}
	
		.st8{clip-path:url(#SVGID_00000118377645704307511200000017903227478502382229_);fill:none;stroke:#793E20;stroke-width:5;stroke-miterlimit:10;}
	
		.st9{clip-path:url(#SVGID_00000116940826127522151480000013910974776706868098_);fill:none;stroke:#793E20;stroke-width:5;stroke-miterlimit:10;}
</style>
<g>
	<g>
		<path class="st0" d="M141.3,73.3c-1.7-6.8-9.7-5.6-17.1-2.9c-2.1-12.1-11.3-24.3-25.1-33.8c-0.2-0.5-0.4-1.1-0.7-1.6
			c-0.3-0.5-0.6-1-1-1.6c1.1-10.3-1.9-27.2-19.4-32.2C59.2-4.1,47,8.8,42.7,14.5c-4.1,1.1-7.1,3.4-8.9,6.5
			C17.7,23.5,5.4,31.5,1.4,43.7c-7.1,21.5,14.4,48,48.1,59.1c26.3,8.7,52.2,5.5,65.7-6.6c1.9,3,4.6,5.2,8.4,5.5
			C137.1,102.9,144.6,86.4,141.3,73.3z"/>
		
			<ellipse transform="matrix(0.314 -0.9494 0.9494 0.314 -17.5752 102.8975)" class="st1" cx="62.4" cy="63.6" rx="34.8" ry="57.2"/>
		<path class="st2" d="M24.9,82.6c0,0,26.4-7.6,22.9-56.6"/>
		<path class="st3" d="M117.1,80.1c0,0,16.4-10.1,18.3-2.2s-2.6,17.9-10.7,17.2C116.6,94.4,117.1,80.1,117.1,80.1z"/>
		<path class="st4" d="M18.4,47.2c0,0,7.7,2.3,18.1,2.3"/>
	</g>
	<g>
		<path class="st5" d="M46.2,19.9c0,0,11-18.3,30.2-12.8s14.7,28.2,14.7,28.2"/>
		<path class="st5" d="M47.9,19.8c0,0-8.4-0.2-9.6,6.2s2.9,5.4,6.7,5.6s27,1.9,36.7,11.4s14.1,0,11.5-5.2S72.2,19.7,47.9,19.8z"/>
		<g>
			<g>
				<defs>
					<path id="SVGID_1_" d="M47.7,22.2c0,0-6.1-0.4-6.8,4.4c-0.5,2.9,0.8,2.2,4.5,2.4s27.5,1.6,37,11.2c8.5,8.7,10.1,1.1,8.3-1.7
						C86.3,31.3,63.5,21.3,47.7,22.2z"/>
				</defs>
				<clipPath id="SVGID_00000157293204703896735800000006741076901881962930_">
					<use xlink:href="#SVGID_1_"  style="overflow:visible;"/>
				</clipPath>
				
					<path style="clip-path:url(#SVGID_00000157293204703896735800000006741076901881962930_);fill:none;stroke:#793E20;stroke-width:5;stroke-miterlimit:10;" d="
					M50.3,19.8c0,0-5.4,7-4.4,11.8"/>
			</g>
			<g>
				<defs>
					<path id="SVGID_00000103240521755596405880000002489025235757456030_" d="M47.7,22.2c0,0-6.1-0.4-6.8,4.4
						c-0.5,2.9,0.8,2.2,4.5,2.4s27.5,1.6,37,11.2c8.5,8.7,10.1,1.1,8.3-1.7C86.3,31.3,63.5,21.3,47.7,22.2z"/>
				</defs>
				<clipPath id="SVGID_00000059281452536322056260000009132024611227704766_">
					<use xlink:href="#SVGID_00000103240521755596405880000002489025235757456030_"  style="overflow:visible;"/>
				</clipPath>
				
					<path style="clip-path:url(#SVGID_00000059281452536322056260000009132024611227704766_);fill:none;stroke:#793E20;stroke-width:5;stroke-miterlimit:10;" d="
					M61.2,21.2c0,0-4.1,8-4.1,11.7"/>
			</g>
			<g>
				<defs>
					<path id="SVGID_00000102505154527871698550000017745703237989058494_" d="M47.7,22.2c0,0-6.1-0.4-6.8,4.4
						c-0.5,2.9,0.8,2.2,4.5,2.4s27.5,1.6,37,11.2c8.5,8.7,10.1,1.1,8.3-1.7C86.3,31.3,63.5,21.3,47.7,22.2z"/>
				</defs>
				<clipPath id="SVGID_00000166670100971290230640000009147633332661375891_">
					<use xlink:href="#SVGID_00000102505154527871698550000017745703237989058494_"  style="overflow:visible;"/>
				</clipPath>
				
					<path style="clip-path:url(#SVGID_00000166670100971290230640000009147633332661375891_);fill:none;stroke:#793E20;stroke-width:5;stroke-miterlimit:10;" d="
					M75.7,25.5c0,0-0.7,9.7-2.9,11.8"/>
			</g>
			<g>
				<defs>
					<path id="SVGID_00000034050300555622635160000013438673659306853017_" d="M47.7,22.2c0,0-6.1-0.4-6.8,4.4
						c-0.5,2.9,0.8,2.2,4.5,2.4s27.5,1.6,37,11.2c8.5,8.7,10.1,1.1,8.3-1.7C86.3,31.3,63.5,21.3,47.7,22.2z"/>
				</defs>
				<clipPath id="SVGID_00000114037587552319887960000000755102307185333929_">
					<use xlink:href="#SVGID_00000034050300555622635160000013438673659306853017_"  style="overflow:visible;"/>
				</clipPath>
				
					<path style="clip-path:url(#SVGID_00000114037587552319887960000000755102307185333929_);fill:none;stroke:#793E20;stroke-width:5;stroke-miterlimit:10;" d="
					M85.4,30.7c0,0,1.4,10.7-3.2,12.8"/>
			</g>
		</g>
	</g>
</g>
</svg>
